<svg width="25" height="30" viewBox="0 0 25 30" fill="none" xmlns="http://www.w3.org/2000/svg">
<rect width="25" height="30" rx="5" fill="#FF6652"/>
<path d="M5.75369 8.12427C5.75321 8.12427 5.75266 8.12427 5.75218 8.12427C5.58194 8.12427 5.42181 8.19063 5.3009 8.31124C5.17866 8.43318 5.11133 8.59554 5.11133 8.76839V18.4269C5.11133 18.7811 5.4006 19.0699 5.75624 19.0708C7.25552 19.0744 9.76741 19.3869 11.5003 21.2003V11.0924C11.5003 10.9723 11.4696 10.8595 11.4117 10.7662C9.98947 8.47578 7.25637 8.12778 5.75369 8.12427Z" fill="white"/>
<path d="M18.8889 18.427V8.76839C18.8889 8.59554 18.8215 8.43318 18.6993 8.31124C18.5784 8.19063 18.4181 8.12427 18.2481 8.12427C18.2475 8.12427 18.247 8.12427 18.2465 8.12427C16.7439 8.12784 14.0108 8.47584 12.5885 10.7663C12.5306 10.8596 12.5 10.9724 12.5 11.0925V21.2003C14.2329 19.3869 16.7447 19.0744 18.244 19.0708C18.5996 19.0699 18.8889 18.7811 18.8889 18.427Z" fill="white"/>
<path d="M20.3557 10.3518H19.8887V18.427C19.8887 19.3314 19.1519 20.0687 18.2462 20.071C16.9745 20.074 14.8776 20.3227 13.3926 21.7282C15.961 21.0994 18.6685 21.5081 20.2115 21.8598C20.4042 21.9037 20.6033 21.8583 20.7576 21.7353C20.9115 21.6126 20.9997 21.4291 20.9997 21.2322V10.9958C20.9998 10.6407 20.7108 10.3518 20.3557 10.3518Z" fill="white"/>
<path d="M4.11103 18.427V10.3518H3.644C3.28897 10.3518 3 10.6407 3 10.9958V21.232C3 21.429 3.08824 21.6124 3.24206 21.7351C3.3963 21.8581 3.59521 21.9036 3.78818 21.8596C5.33122 21.5079 8.0388 21.0992 10.6071 21.728C9.12208 20.3226 7.02523 20.074 5.75352 20.0709C4.84788 20.0687 4.11103 19.3314 4.11103 18.427Z" fill="white"/>
</svg>
