<svg width="36" height="36" viewBox="0 0 36 36" fill="none" xmlns="http://www.w3.org/2000/svg">
<circle cx="18" cy="18" r="18" fill="#FF6652"/>
<path d="M17.9999 11.4546C16.2223 11.4546 15.9992 11.4624 15.3011 11.4941C14.6043 11.526 14.1287 11.6364 13.7125 11.7982C13.282 11.9654 12.9168 12.189 12.553 12.553C12.1889 12.9168 11.9653 13.282 11.7976 13.7124C11.6353 14.1287 11.5249 14.6045 11.4935 15.301C11.4623 15.9992 11.4541 16.2224 11.4541 18C11.4541 19.7777 11.462 20.0001 11.4936 20.6983C11.5257 21.3951 11.636 21.8707 11.7977 22.2869C11.965 22.7174 12.1887 23.0826 12.5526 23.4464C12.9163 23.8105 13.2815 24.0347 13.7117 24.2019C14.1281 24.3637 14.6039 24.474 15.3005 24.5059C15.9987 24.5377 16.2216 24.5455 17.9991 24.5455C19.7768 24.5455 19.9992 24.5377 20.6974 24.5059C21.3942 24.474 21.8703 24.3637 22.2868 24.2019C22.7171 24.0347 23.0817 23.8105 23.4454 23.4464C23.8095 23.0826 24.0331 22.7174 24.2009 22.287C24.3618 21.8707 24.4722 21.3949 24.5049 20.6984C24.5363 20.0002 24.5445 19.7777 24.5445 18C24.5445 16.2224 24.5363 15.9993 24.5049 15.3011C24.4722 14.6043 24.3618 14.1287 24.2009 13.7125C24.0331 13.282 23.8095 12.9168 23.4454 12.553C23.0813 12.1889 22.7173 11.9653 22.2864 11.7982C21.8691 11.6364 21.3932 11.526 20.6964 11.4941C19.9983 11.4624 19.776 11.4546 17.9979 11.4546H17.9999ZM17.4127 12.6341C17.587 12.6339 17.7815 12.6341 17.9999 12.6341C19.7475 12.6341 19.9546 12.6404 20.6447 12.6718C21.2829 12.701 21.6292 12.8076 21.86 12.8972C22.1654 13.0158 22.3832 13.1576 22.6121 13.3867C22.8412 13.6158 22.983 13.834 23.1019 14.1395C23.1915 14.3699 23.2983 14.7163 23.3273 15.3545C23.3587 16.0445 23.3655 16.2517 23.3655 17.9985C23.3655 19.7454 23.3587 19.9526 23.3273 20.6426C23.2982 21.2808 23.1915 21.6272 23.1019 21.8576C22.9833 22.1631 22.8412 22.3806 22.6121 22.6095C22.383 22.8386 22.1655 22.9804 21.86 23.0991C21.6295 23.1891 21.2829 23.2954 20.6447 23.3246C19.9548 23.356 19.7475 23.3628 17.9999 23.3628C16.2522 23.3628 16.0451 23.356 15.3551 23.3246C14.7169 23.2952 14.3706 23.1885 14.1397 23.0989C13.8343 22.9803 13.6161 22.8385 13.387 22.6094C13.1579 22.3803 13.0161 22.1627 12.8972 21.8571C12.8076 21.6266 12.7008 21.2803 12.6718 20.6421C12.6404 19.9521 12.6342 19.7448 12.6342 17.9969C12.6342 16.249 12.6404 16.0428 12.6718 15.3528C12.701 14.7146 12.8076 14.3683 12.8972 14.1375C13.0158 13.8321 13.1579 13.6139 13.387 13.3848C13.6161 13.1557 13.8343 13.0139 14.1397 12.895C14.3704 12.805 14.7169 12.6986 15.3551 12.6693C15.9589 12.642 16.1929 12.6339 17.4127 12.6325V12.6341ZM21.4937 13.721C21.0601 13.721 20.7083 14.0724 20.7083 14.5061C20.7083 14.9398 21.0601 15.2916 21.4937 15.2916C21.9273 15.2916 22.2791 14.9398 22.2791 14.5061C22.2791 14.0725 21.9273 13.7207 21.4937 13.7207V13.721ZM17.9999 14.6387C16.1436 14.6387 14.6386 16.1437 14.6386 18C14.6386 19.8564 16.1436 21.3607 17.9999 21.3607C19.8562 21.3607 21.3606 19.8564 21.3606 18C21.3606 16.1437 19.856 14.6387 17.9998 14.6387H17.9999ZM17.9999 15.8182C19.2048 15.8182 20.1817 16.795 20.1817 18C20.1817 19.2049 19.2048 20.1819 17.9999 20.1819C16.7949 20.1819 15.8182 19.2049 15.8182 18C15.8182 16.795 16.7949 15.8182 17.9999 15.8182Z" fill="white"/>
</svg>
