<svg width="22" height="18" viewBox="0 0 22 18" fill="none" xmlns="http://www.w3.org/2000/svg">
<g clip-path="url(#clip0_17_1682)">
<path d="M6.94595 17.5274C15.193 17.5274 19.703 10.8123 19.703 4.98925C19.703 4.79852 19.6991 4.60865 19.6904 4.41964C20.5658 3.79762 21.3267 3.02139 21.9269 2.13775C21.1235 2.48871 20.259 2.72497 19.3521 2.8315C20.2778 2.28595 20.9884 1.42294 21.3237 0.394142C20.4574 0.898891 19.4981 1.26575 18.4766 1.46381C17.6584 0.607268 16.4936 0.0715332 15.2038 0.0715332C12.7278 0.0715332 10.7199 2.04502 10.7199 4.47762C10.7199 4.82343 10.7593 5.15978 10.8362 5.48242C7.10976 5.29813 3.80544 3.54461 1.594 0.878268C1.20894 1.5295 0.986906 2.28597 0.986906 3.09314C0.986906 4.62199 1.77847 5.97167 2.98216 6.76125C2.24655 6.73891 1.55553 6.54045 0.951559 6.2101C0.950899 6.22859 0.950897 6.24662 0.950897 6.26638C0.950897 8.40052 2.4964 10.1824 4.54797 10.5861C4.17122 10.6871 3.77482 10.7412 3.36569 10.7412C3.07723 10.7412 2.79618 10.7133 2.52302 10.6617C3.09383 12.4127 4.74905 13.6868 6.71145 13.7224C5.17688 14.9046 3.24374 15.6087 1.14274 15.6087C0.781279 15.6087 0.424194 15.5885 0.0732422 15.5477C2.05757 16.7977 4.41377 17.5271 6.94619 17.5271" fill="#0A033C"/>
</g>
<defs>
<clipPath id="clip0_17_1682">
<rect width="22" height="17.6" fill="white"/>
</clipPath>
</defs>
</svg>
