<svg width="26" height="26" viewBox="0 0 26 26" fill="none" xmlns="http://www.w3.org/2000/svg">
<path d="M12.9997 0.5C10.5753 0.504606 8.20455 1.21414 6.17623 2.54217C4.14791 3.87021 2.54956 5.75943 1.57587 7.97971C0.602178 10.2 0.295165 12.6555 0.692228 15.0472C1.08929 17.4389 2.17329 19.6635 3.8122 21.45C4.98272 22.7188 6.40337 23.7314 7.98462 24.424C9.56586 25.1166 11.2734 25.4742 12.9997 25.4742C14.726 25.4742 16.4335 25.1166 18.0148 24.424C19.596 23.7314 21.0167 22.7188 22.1872 21.45C23.8261 19.6635 24.9101 17.4389 25.3072 15.0472C25.7042 12.6555 25.3972 10.2 24.4235 7.97971C23.4498 5.75943 21.8515 3.87021 19.8232 2.54217C17.7948 1.21414 15.4241 0.504606 12.9997 0.5ZM12.9997 23C10.4103 22.9961 7.92334 21.9878 6.06219 20.1875C6.62725 18.8119 7.58849 17.6354 8.82376 16.8074C10.059 15.9793 11.5126 15.5373 12.9997 15.5373C14.4868 15.5373 15.9404 15.9793 17.1756 16.8074C18.4109 17.6354 19.3721 18.8119 19.9372 20.1875C18.076 21.9878 15.5891 22.9961 12.9997 23ZM10.4997 10.5C10.4997 10.0055 10.6463 9.5222 10.921 9.11107C11.1957 8.69995 11.5862 8.37952 12.043 8.1903C12.4998 8.00108 13.0025 7.95157 13.4874 8.04804C13.9724 8.1445 14.4178 8.3826 14.7675 8.73223C15.1171 9.08186 15.3552 9.52732 15.4517 10.0123C15.5481 10.4972 15.4986 10.9999 15.3094 11.4567C15.1202 11.9135 14.7997 12.304 14.3886 12.5787C13.9775 12.8534 13.4941 13 12.9997 13C12.3367 13 11.7008 12.7366 11.2319 12.2678C10.7631 11.7989 10.4997 11.163 10.4997 10.5ZM21.6372 18C20.5204 16.0897 18.8014 14.6038 16.7497 13.775C17.3862 13.0533 17.8009 12.1633 17.944 11.2118C18.0872 10.2603 17.9528 9.28764 17.5569 8.41062C17.161 7.5336 16.5204 6.78945 15.7121 6.26746C14.9037 5.74547 13.9619 5.46781 12.9997 5.46781C12.0375 5.46781 11.0957 5.74547 10.2873 6.26746C9.47896 6.78945 8.83841 7.5336 8.44251 8.41062C8.04661 9.28764 7.91218 10.2603 8.05536 11.2118C8.19853 12.1633 8.61323 13.0533 9.24969 13.775C7.19794 14.6038 5.47903 16.0897 4.3622 18C3.47212 16.4839 3.00184 14.7581 2.99969 13C2.99969 10.3478 4.05326 7.8043 5.92863 5.92893C7.80399 4.05357 10.3475 3 12.9997 3C15.6519 3 18.1954 4.05357 20.0708 5.92893C21.9461 7.8043 22.9997 10.3478 22.9997 13C22.9975 14.7581 22.5273 16.4839 21.6372 18Z" fill="#9C4DF4"/>
</svg>
