<svg width="30" height="30" viewBox="0 0 30 30" fill="none" xmlns="http://www.w3.org/2000/svg">
<path d="M15.009 24.3518C15.009 24.8803 14.7037 25.3604 14.2258 25.5845C14.041 25.6719 13.8431 25.7141 13.6464 25.7141C13.3349 25.7141 13.0263 25.607 12.777 25.4004L5.32911 19.2287H1.36235C0.610073 19.2293 0 18.6189 0 17.8667V12.4389C0 11.6863 0.610073 11.0762 1.36235 11.0762H5.32943L12.7774 4.90454C13.1843 4.56726 13.7486 4.49535 14.2261 4.72107C14.7037 4.94517 15.0094 5.42562 15.0094 5.95379L15.009 24.3518ZM20.2446 22.2229C20.2114 22.2252 20.1795 22.2265 20.1466 22.2265C19.7868 22.2265 19.4398 22.0843 19.1835 21.8276L19.0013 21.6448C18.5234 21.1679 18.4673 20.4124 18.8697 19.87C19.8899 18.4945 20.4284 16.8638 20.4284 15.1533C20.4284 13.3134 19.8171 11.5876 18.6601 10.1624C18.2197 9.62068 18.2603 8.8339 18.7539 8.34055L18.9358 8.15837C19.208 7.88622 19.5726 7.7379 19.9673 7.76144C20.3517 7.78078 20.7106 7.96168 20.9543 8.25962C22.5592 10.2233 23.4069 12.6075 23.4069 15.1536C23.4069 17.5249 22.6572 19.782 21.2384 21.6799C21.0014 21.9963 20.639 22.1949 20.2446 22.2229ZM25.8772 26.4332C25.6308 26.7243 25.2745 26.8991 24.8931 26.9152C24.8743 26.9159 24.8553 26.9165 24.836 26.9165C24.4752 26.9165 24.1289 26.774 23.8725 26.5176L23.6935 26.3387C23.1934 25.8389 23.1596 25.0395 23.6142 24.4985C25.8114 21.8853 27.0219 18.5667 27.0219 15.1533C27.0219 11.6028 25.7259 8.18481 23.3737 5.52912C22.8968 4.98999 22.921 4.17387 23.4285 3.6644L23.6071 3.48544C23.8722 3.2191 24.2166 3.07238 24.6116 3.08496C24.9866 3.0956 25.3413 3.26134 25.5905 3.54187C28.4339 6.74314 30 10.8673 30 15.1533C30.0006 19.2771 28.5364 23.2832 25.8772 26.4332Z" fill="#FF6652"/>
</svg>
