<svg width="50" height="50" viewBox="0 0 50 50" fill="none" xmlns="http://www.w3.org/2000/svg">
<path d="M25 50C38.8071 50 50 38.8071 50 25C50 11.1929 38.8071 0 25 0C11.1929 0 0 11.1929 0 25C0 38.8071 11.1929 50 25 50Z" fill="#424242"/>
<path d="M27.6946 49.8552C38.4402 48.7035 47.1473 40.7442 49.4192 30.3746L33.2994 14.2547C33.2994 14.2547 20.1113 13.8903 15.3477 21.7252L22.3675 28.7628L16.1164 38.3496L27.6946 49.8552Z" fill="#232323"/>
<path d="M35.3985 38.3495H16.1163V31.8408L28.4999 22.4655C30.0702 21.2766 29.6918 19.6189 29.5385 19.1391C29.3907 18.677 28.7618 17.1645 26.8719 17.1094C26.8298 17.1082 26.7557 17.1075 26.726 17.1073H24.5363C21.3108 17.1073 21.0603 20.6418 21.0603 21.7251H15.3477C15.3477 15.6427 19.1262 11.3947 24.5363 11.3947L26.7583 11.3948C26.7583 11.3948 26.945 11.3965 27.038 11.3991C30.7319 11.507 33.849 13.8624 34.9799 17.3996C36.1252 20.9824 34.9351 24.7586 31.9481 27.02L24.529 32.6369H35.3986V38.3495H35.3985Z" fill="#F8FFFB"/>
<path d="M31.9475 27.0199L25.378 31.9938V24.8285L28.4992 22.4656C30.0692 21.2768 29.691 19.6191 29.5383 19.1395C29.3905 18.6766 28.7611 17.1647 26.8711 17.1096C26.8287 17.1087 26.7549 17.1077 26.7253 17.1077H25.3779V11.3951H26.7578C26.7578 11.3951 26.9439 11.397 27.0375 11.399C30.731 11.5073 33.8482 13.8623 34.979 17.4002C36.1245 20.9823 34.9348 24.7586 31.9475 27.0199Z" fill="#D8D8D8"/>
<path d="M25.3789 32.6369H35.3986V38.3495H25.3789V32.6369Z" fill="#D8D8D8"/>
</svg>
