<svg width="31" height="30" viewBox="0 0 31 30" fill="none" xmlns="http://www.w3.org/2000/svg">
<path d="M16.673 8.23586C15.9289 8.97835 14.7229 8.97835 13.9788 8.23586C13.2349 7.49336 13.2349 6.28944 13.9788 5.54695C14.7229 4.80446 15.9289 4.80446 16.673 5.54695C17.4168 6.28944 17.4168 7.49336 16.673 8.23586Z" fill="#9C4DF4"/>
<path d="M19.2747 11.1168C19.0426 11.1168 18.8105 11.0282 18.6338 10.8508C18.2804 10.497 18.2811 9.92363 18.6349 9.57046C19.352 8.85475 19.7468 7.90329 19.7468 6.8914C19.7468 5.87951 19.352 4.92805 18.6349 4.21234C18.2811 3.85894 18.2804 3.28582 18.6338 2.93174C18.987 2.57789 19.5603 2.57721 19.9142 2.9306C20.9741 3.98849 21.5578 5.39497 21.5578 6.8914C21.5578 8.3876 20.9741 9.79431 19.9142 10.8522C19.7375 11.0287 19.5061 11.1168 19.2747 11.1168Z" fill="#9C4DF4"/>
<path d="M21.3225 13.7826C21.0904 13.7826 20.8583 13.694 20.6816 13.5168C20.3282 13.1628 20.3289 12.5896 20.6828 12.2362C22.1133 10.8085 22.9013 8.91037 22.9013 6.8914C22.9013 4.87243 22.1133 2.97432 20.6828 1.54655C20.3289 1.19316 20.3282 0.620038 20.6816 0.265957C21.035 -0.087894 21.6082 -0.0885806 21.962 0.264813C23.7354 2.03476 24.7123 4.38812 24.712 6.8914C24.712 9.39468 23.7354 11.7483 21.962 13.5182C21.7853 13.6945 21.5539 13.7826 21.3225 13.7826Z" fill="#9C4DF4"/>
<path d="M11.3712 11.1163C11.1398 11.1163 10.9084 11.0282 10.7315 10.8518C9.67154 9.79386 9.08789 8.38715 9.08789 6.89095C9.08789 5.39452 9.67154 3.98804 10.7315 2.93015C11.0853 2.57676 11.6587 2.57722 12.0119 2.9313C12.3653 3.28515 12.3646 3.8585 12.0107 4.21189C11.2936 4.9276 10.8988 5.87907 10.8988 6.89095C10.8988 7.90284 11.2936 8.8543 12.0107 9.57001C12.3646 9.92318 12.3653 10.4965 12.0119 10.8504C11.8352 11.0275 11.6031 11.1163 11.3712 11.1163Z" fill="#9C4DF4"/>
<path d="M9.32334 13.7835C9.09171 13.7835 8.86031 13.6954 8.68361 13.5189C6.91023 11.749 5.93359 9.3956 5.93359 6.89232C5.93359 4.38881 6.91023 2.03545 8.68361 0.265507C9.03747 -0.0876575 9.61082 -0.0871997 9.96398 0.26688C10.3174 0.620732 10.3167 1.19385 9.96284 1.54725C8.53232 2.97501 7.74428 4.87313 7.74428 6.89209C7.74428 8.91106 8.53232 10.8094 9.96284 12.2372C10.3167 12.5906 10.3174 13.1637 9.96398 13.5178C9.78728 13.6949 9.5552 13.7835 9.32334 13.7835Z" fill="#9C4DF4"/>
<path d="M27.2566 15.3479H3.38955C2.21974 15.3479 1.27148 16.2962 1.27148 17.4657V27.8819C1.27148 29.0517 2.21974 30 3.38955 30H27.2564C28.4262 30 29.3744 29.0517 29.3744 27.8819V17.4657C29.3744 16.2962 28.4262 15.3479 27.2566 15.3479ZM8.23657 27.2825H4.90063C4.40075 27.2825 3.9954 26.8771 3.9954 26.377V18.9709C3.9954 18.471 4.40075 18.0654 4.90063 18.0654C5.40073 18.0654 5.80608 18.4708 5.80608 18.9709V25.4715H8.23657C8.73668 25.4715 9.14203 25.8769 9.14203 26.377C9.14203 26.8771 8.73668 27.2825 8.23657 27.2825ZM11.9472 26.377C11.9472 26.8771 11.5418 27.2825 11.0417 27.2825C10.5416 27.2825 10.1363 26.8771 10.1363 26.377V18.9709C10.1363 18.471 10.5416 18.0654 11.0417 18.0654C11.5418 18.0654 11.9472 18.4708 11.9472 18.9709V26.377ZM19.5653 19.2327L17.3293 26.6386C17.3291 26.6393 17.3289 26.64 17.3287 26.6407C17.0858 27.4695 15.8478 27.4491 15.5965 26.6407C15.5963 26.64 15.596 26.6393 15.5958 26.6386L13.3599 19.2327C13.2154 18.7539 13.4862 18.2487 13.965 18.1041C14.4434 17.9597 14.949 18.2304 15.0934 18.7093L16.4626 23.2441L17.8317 18.7093C17.9764 18.2304 18.4815 17.9594 18.9603 18.1041C19.4389 18.2487 19.7099 18.7539 19.5653 19.2327ZM25.1356 21.3022C25.6357 21.3022 26.041 21.7076 26.041 22.2077C26.041 22.7076 25.6357 23.1132 25.1356 23.1132H22.5661V25.4715H25.6233C26.1234 25.4715 26.5288 25.8769 26.5288 26.377C26.5288 26.8771 26.1234 27.2825 25.6233 27.2825H21.6607C21.1606 27.2825 20.7552 26.8771 20.7552 26.377V18.9709C20.7552 18.471 21.1606 18.0654 21.6607 18.0654H25.7453C26.2452 18.0654 26.6508 18.4708 26.6508 18.9709C26.6508 19.471 26.2452 19.8763 25.7453 19.8763H22.5659V21.3022H25.1356Z" fill="#9C4DF4"/>
</svg>
